<?xml version="1.0" standalone="no"?>
<!DOCTYPE svg PUBLIC "-//W3C//DTD SVG 20010904//EN"
 "http://www.w3.org/TR/2001/REC-SVG-20010904/DTD/svg10.dtd">
<svg version="1.0" xmlns="http://www.w3.org/2000/svg"
 width="462.000000pt" height="481.000000pt" viewBox="0 0 462.000000 481.000000"
 preserveAspectRatio="xMidYMid meet">

<g transform="translate(0.000000,481.000000) scale(0.100000,-0.100000)"
fill="#000000" stroke="none">
<path d="M1493 3321 c3 -11 -39 -49 -64 -56 -11 -4 -19 -11 -19 -16 0 -5 -7
-9 -15 -9 -14 0 -19 -12 -16 -32 0 -5 -3 -8 -8 -8 -5 0 -13 -10 -16 -21 -6
-17 -9 -19 -16 -8 -7 12 -9 11 -10 -1 -1 -8 -1 -18 0 -22 0 -5 -4 -8 -9 -8 -5
0 -10 -6 -10 -14 0 -8 -12 -18 -27 -24 -16 -5 -37 -18 -48 -29 -11 -10 -42
-27 -70 -37 -27 -10 -54 -22 -60 -25 -5 -4 -20 -6 -32 -5 -13 0 -23 -2 -23 -6
0 -4 -18 -15 -41 -24 -23 -9 -48 -23 -56 -31 -8 -8 -23 -15 -34 -15 -11 0 -18
-4 -15 -8 6 -10 -25 -38 -52 -46 -42 -14 -33 -35 27 -65 222 -113 484 -15 597
223 23 49 36 93 41 138 6 72 -3 158 -18 158 -5 0 -8 -4 -6 -9z"/>
<path d="M3883 2667 c3 -9 -2 -26 -12 -39 -17 -21 -18 -23 -2 -36 9 -7 10 -10
3 -7 -9 5 -15 -1 -19 -14 -3 -12 -12 -21 -20 -21 -10 0 -13 6 -8 17 6 17 -9 6
-84 -65 -37 -34 -150 -107 -219 -142 -59 -29 -82 -46 -44 -33 14 5 13 3 -3
-10 -23 -19 -39 -22 -30 -7 8 13 -35 4 -80 -16 l-30 -13 29 6 c20 4 27 3 22
-6 -4 -6 -16 -11 -28 -11 -11 0 -32 -8 -46 -19 -15 -10 -37 -22 -49 -25 -13
-4 -23 -12 -23 -17 0 -6 6 -7 13 -3 8 5 8 2 -2 -9 -7 -9 -22 -17 -32 -17 -11
0 -19 -4 -19 -8 0 -5 -12 -15 -27 -23 -29 -15 -66 -49 -83 -76 -9 -15 -10 -14
-4 6 5 18 3 22 -7 16 -30 -17 -48 -38 -42 -48 4 -6 0 -8 -9 -5 -8 4 -22 -2
-31 -13 -9 -10 -12 -19 -7 -19 6 0 1 -9 -10 -20 -12 -12 -26 -18 -31 -14 -7 4
-9 0 -6 -12 36 -120 57 -256 57 -363 0 -61 3 -81 13 -81 31 0 174 42 256 75
l89 36 53 -34 c162 -103 357 -177 538 -202 l44 -6 -39 43 c-113 123 -182 274
-204 448 l-9 75 43 85 c93 183 135 342 136 505 0 91 -2 102 -22 119 -17 15
-20 15 -15 3z m-63 -124 c0 -5 -5 -15 -10 -23 -8 -12 -10 -11 -10 8 0 12 5 22
10 22 6 0 10 -3 10 -7z m-45 -53 c-3 -5 -11 -10 -16 -10 -6 0 -7 5 -4 10 3 6
11 10 16 10 6 0 7 -4 4 -10z"/>
<path d="M1725 2524 c27 -365 231 -685 561 -877 124 -73 299 -128 450 -143
l72 -6 4 43 c7 67 -9 225 -31 312 -38 148 -138 327 -251 450 -112 123 -304
240 -470 287 -52 15 -116 24 -209 27 l-134 6 8 -99z"/>
<path d="M1951 1642 c6 -10 21 -23 33 -28 11 -5 20 -16 18 -24 -2 -8 0 -12 4
-7 10 10 45 -23 37 -36 -4 -6 -1 -7 6 -3 7 5 30 -4 52 -19 71 -47 52 -20 -24
32 -39 28 -83 63 -96 77 -28 30 -47 35 -30 8z"/>
<path d="M2200 1465 c13 -14 29 -25 36 -25 17 0 24 -37 9 -50 -8 -6 -17 -25
-20 -42 -5 -23 -9 -27 -16 -17 -8 12 -10 12 -18 0 -6 -10 -10 -10 -16 -1 -5 8
-11 6 -20 -7 -15 -20 -10 -37 7 -27 7 4 8 2 4 -4 -4 -7 -14 -12 -21 -12 -16 0
-38 -34 -28 -44 3 -3 -2 -6 -11 -6 -12 0 -16 -5 -12 -16 3 -9 2 -12 -4 -9 -7
4 -9 -6 -5 -27 4 -24 3 -29 -5 -18 -5 8 -10 13 -11 10 0 -3 -2 -14 -4 -25 -2
-11 -7 -30 -10 -42 -5 -15 -3 -23 4 -23 6 0 11 -4 11 -10 0 -17 -38 -11 -49 7
-11 21 -16 17 -26 -17 -7 -24 -7 -24 9 -5 15 20 15 20 16 -2 0 -13 -9 -27 -21
-33 -13 -7 -18 -17 -15 -27 4 -9 -1 -22 -11 -30 -17 -14 -17 -14 1 -8 19 6 19
5 1 -15 -17 -19 -17 -21 0 -40 10 -11 15 -26 11 -36 -4 -10 -1 -21 5 -25 9 -5
9 -15 1 -38 -6 -17 -8 -39 -5 -48 4 -11 3 -14 -5 -9 -22 13 -12 -13 11 -30 22
-17 22 -19 5 -36 -10 -10 -23 -18 -28 -18 -6 0 -5 -6 2 -14 7 -8 16 -13 20
-13 3 1 6 -2 6 -8 0 -5 -5 -9 -10 -7 -6 1 -16 -3 -24 -9 -14 -11 -15 -10 -18
11 -3 24 -66 42 -66 20 0 -5 6 -10 14 -10 8 0 16 -7 20 -15 4 -12 2 -13 -14
-3 -15 10 -25 7 -59 -15 -23 -15 -41 -31 -41 -36 0 -5 -10 -12 -22 -14 -62
-12 69 -5 147 8 390 64 705 328 831 698 l23 67 -37 0 c-123 0 -373 68 -500
135 -58 31 -62 32 -42 10z m-160 -457 c0 -4 -4 -8 -10 -8 -5 0 -10 -7 -10 -15
0 -13 -2 -14 -14 -3 -9 8 -11 17 -5 24 10 13 39 14 39 2z m-25 -78 c-3 -5 -14
-10 -23 -10 -15 0 -15 2 -2 10 20 13 33 13 25 0z m15 -30 c0 -5 -5 -10 -11
-10 -5 0 -7 5 -4 10 3 6 8 10 11 10 2 0 4 -4 4 -10z m7 -259 c3 -20 1 -21 -12
-7 -18 17 -20 39 -3 34 6 -2 13 -14 15 -27z"/>
<path d="M2195 1381 c-3 -5 -2 -12 3 -15 5 -3 9 1 9 9 0 17 -3 19 -12 6z"/>
</g>
</svg>
